# xmcd
#
# Track frame offsets:
#	150
#	12145
#	23042
#	37282
#	50950
#	65010
#	81160
#	94357
#	109112
#	122885
#	136085
#	150075
#
# Disc length: 2241 seconds
#
# Revision: 1
# Processed by: cddbd v1.5.2PL0 Copyright (c) Steve Scherf et al.
# Submitted via: EasyCDDAExtractor 15.3.0.1
#
DISCID=9e08bf0c
DTITLE=Various Artist - Southern Grooves
DYEAR=1997
DGENRE=Soul
TTITLE0=Bill Brandon - Full Grown Lovin' Man
TTITLE1=Bobby Patterson - How Do You Spell Love
TTITLE2=Syl Johnson - Annie Got Hot Pants Power (Part 1)
TTITLE3=Willie Hobbs - Big Legged Woman
TTITLE4=Mickey Murray - Sticky Sue
TTITLE5=Eddie Mobley - Stick In Your Earhole
TTITLE6=Ann Sexton - You Been Doing Me Wrong For So Long
TTITLE7=Annette Snell - Love Connection
TTITLE8=Luther Ingram - Do You Think There Is A Chance
TTITLE9=Ella Washington - I Don't Care About Your Past
TTITLE10=Alder Ray Black and The Fame Gang - Just because the package's been unw
TTITLE10=rapped and opened (doesn't mean the marchandise is spoiled)
TTITLE11=Ann Sexton - Sugar Daddy
EXTD=
EXTT0=
EXTT1=
EXTT2=
EXTT3=
EXTT4=
EXTT5=
EXTT6=
EXTT7=
EXTT8=
EXTT9=
EXTT10=
EXTT11=
PLAYORDER=
